# Blender v2.79 (sub 0) OBJ File: ''
# www.blender.org
mtllib trampa_picos.mtl
o Cone.001
v 1.000000 0.019806 0.233410
v 1.132699 0.019806 0.246219
v 1.260299 0.019806 0.284151
v 1.377895 0.019806 0.345751
v 1.480970 0.019806 0.428650
v 1.565560 0.019806 0.529662
v 1.628417 0.019806 0.644907
v 1.667124 0.019806 0.769955
v 1.680194 0.019806 0.900000
v 1.667124 0.019806 1.030045
v 1.628417 0.019806 1.155093
v 1.565560 0.019806 1.270337
v 1.480970 0.019806 1.371350
v 1.377895 0.019806 1.454249
v 1.260299 0.019806 1.515849
v 1.132699 0.019806 1.553782
v 1.000000 0.019806 1.566590
v 0.867301 0.019806 1.553782
v 0.739701 0.019806 1.515849
v 0.622104 0.019806 1.454249
v 0.519030 0.019806 1.371350
v 0.434439 0.019806 1.270337
v 0.371583 0.019806 1.155092
v 1.000000 1.380194 0.900000
v 0.332876 0.019806 1.030045
v 0.319806 0.019806 0.899999
v 0.332876 0.019806 0.769954
v 0.371583 0.019806 0.644906
v 0.434440 0.019806 0.529662
v 0.519031 0.019806 0.428649
v 0.622105 0.019806 0.345750
v 0.739702 0.019806 0.284151
v 0.867302 0.019806 0.246218
v -1.000000 0.019806 -1.566590
v -0.867301 0.019806 -1.553782
v -0.739701 0.019806 -1.515849
v -0.622105 0.019806 -1.454249
v -0.519030 0.019806 -1.371350
v -0.434440 0.019806 -1.270337
v -0.371583 0.019806 -1.155093
v -0.332876 0.019806 -1.030045
v -0.319806 0.019806 -0.900000
v -0.332876 0.019806 -0.769955
v -0.371583 0.019806 -0.644907
v -0.434440 0.019806 -0.529663
v -0.519030 0.019806 -0.428650
v -0.622105 0.019806 -0.345751
v -0.739701 0.019806 -0.284151
v -0.867301 0.019806 -0.246218
v -1.000000 0.019806 -0.233410
v -1.132699 0.019806 -0.246219
v -1.260299 0.019806 -0.284152
v -1.377896 0.019806 -0.345751
v -1.480970 0.019806 -0.428650
v -1.565561 0.019806 -0.529663
v -1.628417 0.019806 -0.644908
v -1.000000 1.380193 -0.900000
v -1.667124 0.019806 -0.769956
v -1.680194 0.019806 -0.900001
v -1.667124 0.019806 -1.030046
v -1.628417 0.019806 -1.155094
v -1.565560 0.019806 -1.270338
v -1.480969 0.019806 -1.371351
v -1.377895 0.019806 -1.454250
v -1.260298 0.019806 -1.515849
v -1.132698 0.019806 -1.553782
v -1.000000 0.019806 0.233410
v -0.867301 0.019806 0.246218
v -0.739701 0.019806 0.284151
v -0.622105 0.019806 0.345751
v -0.519030 0.019806 0.428650
v -0.434440 0.019806 0.529662
v -0.371583 0.019806 0.644907
v -0.332876 0.019806 0.769955
v -0.319806 0.019806 0.900000
v -0.332876 0.019806 1.030045
v -0.371583 0.019806 1.155093
v -0.434440 0.019806 1.270337
v -0.519030 0.019806 1.371350
v -0.622105 0.019806 1.454249
v -0.739701 0.019806 1.515849
v -0.867301 0.019806 1.553781
v -1.000000 0.019806 1.566590
v -1.132699 0.019806 1.553781
v -1.260299 0.019806 1.515848
v -1.377896 0.019806 1.454249
v -1.480970 0.019806 1.371350
v -1.565561 0.019806 1.270337
v -1.628417 0.019806 1.155092
v -1.000000 1.380193 0.900000
v -1.667124 0.019806 1.030044
v -1.680194 0.019806 0.899999
v -1.667124 0.019806 0.769954
v -1.628417 0.019806 0.644906
v -1.565560 0.019806 0.529662
v -1.480969 0.019806 0.428649
v -1.377895 0.019806 0.345750
v -1.260298 0.019806 0.284151
v -1.132698 0.019806 0.246218
v 1.000000 0.019806 -1.566590
v 1.132699 0.019806 -1.553781
v 1.260299 0.019806 -1.515849
v 1.377895 0.019806 -1.454249
v 1.480970 0.019806 -1.371350
v 1.565560 0.019806 -1.270337
v 1.628417 0.019806 -1.155093
v 1.667124 0.019806 -1.030045
v 1.680194 0.019806 -0.900000
v 1.667124 0.019806 -0.769955
v 1.628417 0.019806 -0.644907
v 1.565560 0.019806 -0.529662
v 1.480970 0.019806 -0.428650
v 1.377895 0.019806 -0.345751
v 1.260299 0.019806 -0.284151
v 1.132699 0.019806 -0.246218
v 1.000000 0.019806 -0.233410
v 0.867301 0.019806 -0.246218
v 0.739701 0.019806 -0.284151
v 0.622104 0.019806 -0.345751
v 0.519030 0.019806 -0.428650
v 0.434439 0.019806 -0.529663
v 0.371583 0.019806 -0.644908
v 1.000000 1.380194 -0.900000
v 0.332876 0.019806 -0.769955
v 0.319806 0.019806 -0.900001
v 0.332876 0.019806 -1.030046
v 0.371583 0.019806 -1.155094
v 0.434440 0.019806 -1.270338
v 0.519031 0.019806 -1.371351
v 0.622105 0.019806 -1.454250
v 0.739702 0.019806 -1.515849
v 0.867302 0.019806 -1.553782
v -2.000000 -0.000000 2.000000
v 2.000000 0.000000 2.000000
v -2.000000 -0.000000 -2.000000
v 2.000000 0.000000 -2.000000
vt 0.597483 0.246946
vt 0.429350 0.600690
vt 0.587049 0.228815
vt 0.576474 0.209769
vt 0.565605 0.190539
vt 0.554207 0.171866
vt 0.541928 0.154465
vt 0.528228 0.139006
vt 0.512281 0.126084
vt 0.492896 0.116194
vt 0.468732 0.109716
vt 0.439586 0.106901
vt 0.408469 0.107855
vt 0.380251 0.112542
vt 0.357218 0.120782
vt 0.338761 0.132259
vt 0.323514 0.146531
vt 0.310355 0.163049
vt 0.298524 0.181180
vt 0.287519 0.200226
vt 0.277010 0.219456
vt 0.266773 0.238129
vt 0.256655 0.255530
vt 0.246553 0.270989
vt 0.236402 0.283911
vt 0.226169 0.293801
vt 0.215845 0.300278
vt 0.205442 0.303094
vt 0.660109 0.303094
vt 0.649653 0.302140
vt 0.639176 0.297453
vt 0.628710 0.289213
vt 0.618274 0.277736
vt 0.607872 0.263464
vt 0.778181 0.146531
vt 0.691069 0.283911
vt 0.624838 0.621332
vt 0.630729 0.975076
vt 0.622750 0.603201
vt 0.621012 0.584155
vt 0.619705 0.564926
vt 0.618916 0.546252
vt 0.618739 0.528851
vt 0.619264 0.513392
vt 0.620573 0.500470
vt 0.622717 0.490580
vt 0.625687 0.484102
vt 0.629389 0.481286
vt 0.633622 0.482241
vt 0.638087 0.486928
vt 0.642440 0.495168
vt 0.646355 0.506645
vt 0.649589 0.520917
vt 0.652005 0.537435
vt 0.653563 0.555566
vt 0.654299 0.574612
vt 0.654285 0.593842
vt 0.653616 0.612515
vt 0.652391 0.629916
vt 0.650703 0.645375
vt 0.648642 0.658297
vt 0.646287 0.668187
vt 0.643713 0.674665
vt 0.640985 0.677480
vt 0.638170 0.676526
vt 0.635325 0.671839
vt 0.632510 0.663599
vt 0.629784 0.652122
vt 0.627206 0.637850
vt 0.210886 0.508058
vt 0.244398 0.861803
vt 0.209769 0.489928
vt 0.209453 0.470882
vt 0.210106 0.451652
vt 0.211891 0.432978
vt 0.214928 0.415578
vt 0.219231 0.400119
vt 0.224632 0.387197
vt 0.230733 0.377307
vt 0.236956 0.370829
vt 0.242697 0.368014
vt 0.247495 0.368968
vt 0.251112 0.373655
vt 0.253509 0.381895
vt 0.254775 0.393372
vt 0.255055 0.407643
vt 0.254504 0.424162
vt 0.253267 0.442293
vt 0.251471 0.461339
vt 0.249222 0.480568
vt 0.246609 0.499242
vt 0.243711 0.516643
vt 0.240594 0.532102
vt 0.237319 0.545024
vt 0.233943 0.554914
vt 0.230522 0.561392
vt 0.227115 0.564207
vt 0.223782 0.563253
vt 0.220588 0.558566
vt 0.217610 0.550326
vt 0.214932 0.538849
vt 0.212652 0.524577
vt 0.580394 0.360219
vt 0.560358 0.713963
vt 0.576974 0.342088
vt 0.573673 0.323042
vt 0.570542 0.303812
vt 0.567638 0.285139
vt 0.565028 0.267738
vt 0.562792 0.252279
vt 0.561029 0.239357
vt 0.559863 0.229467
vt 0.559447 0.222989
vt 0.559962 0.220174
vt 0.561613 0.221128
vt 0.564588 0.225815
vt 0.569001 0.234055
vt 0.574770 0.245532
vt 0.581521 0.259804
vt 0.588578 0.276322
vt 0.595149 0.294453
vt 0.600592 0.313499
vt 0.604576 0.332729
vt 0.607060 0.351402
vt 0.608184 0.368803
vt 0.608157 0.384261
vt 0.607198 0.397184
vt 0.605502 0.407074
vt 0.603236 0.413552
vt 0.600538 0.416367
vt 0.597520 0.415413
vt 0.594274 0.410726
vt 0.590878 0.402486
vt 0.587395 0.391009
vt 0.583883 0.376737
vt 0.713360 0.521684
vt 0.557840 0.251175
vt 0.633001 0.773401
vt 0.863136 0.107855
vt 0.834918 0.112542
vt 0.811885 0.120782
vt 0.793428 0.132259
vt 0.765023 0.163049
vt 0.753191 0.181180
vt 0.742186 0.200226
vt 0.731678 0.219456
vt 0.721440 0.238129
vt 0.711322 0.255530
vt 0.701220 0.270989
vt 0.680836 0.293801
vt 0.670512 0.300278
vt 0.844696 -0.000542
vn 0.0864 0.4384 -0.8946
vn 0.2560 0.4389 -0.8613
vn 0.4167 0.4399 -0.7955
vn 0.5624 0.4412 -0.6993
vn 0.6875 0.4426 -0.5757
vn 0.7867 0.4439 -0.4291
vn 0.8555 0.4449 -0.2648
vn 0.8908 0.4454 -0.0895
vn 0.8908 0.4454 0.0895
vn 0.8555 0.4449 0.2648
vn 0.7867 0.4439 0.4291
vn 0.6875 0.4426 0.5757
vn 0.5624 0.4412 0.6993
vn 0.4167 0.4399 0.7955
vn 0.2560 0.4389 0.8613
vn 0.0864 0.4384 0.8946
vn -0.0864 0.4384 0.8946
vn -0.2560 0.4389 0.8613
vn -0.4167 0.4399 0.7955
vn -0.5624 0.4412 0.6993
vn -0.6875 0.4426 0.5757
vn -0.7867 0.4439 0.4291
vn -0.8555 0.4449 0.2648
vn -0.8908 0.4454 0.0895
vn -0.8908 0.4454 -0.0895
vn -0.8555 0.4449 -0.2648
vn -0.7867 0.4439 -0.4291
vn -0.6875 0.4426 -0.5757
vn -0.5624 0.4412 -0.6993
vn -0.4167 0.4399 -0.7955
vn -0.2560 0.4389 -0.8613
vn -0.0864 0.4384 -0.8946
vn 0.0000 -1.0000 0.0000
vn -0.0863 0.4384 -0.8946
vn -0.0000 1.0000 0.0000
usemtl Material.001
s off
f 1/1/1 24/2/1 2/3/1
f 2/3/2 24/2/2 3/4/2
f 3/4/3 24/2/3 4/5/3
f 4/5/4 24/2/4 5/6/4
f 5/6/5 24/2/5 6/7/5
f 6/7/6 24/2/6 7/8/6
f 7/8/7 24/2/7 8/9/7
f 8/9/8 24/2/8 9/10/8
f 9/10/9 24/2/9 10/11/9
f 10/11/10 24/2/10 11/12/10
f 11/12/11 24/2/11 12/13/11
f 12/13/12 24/2/12 13/14/12
f 13/14/13 24/2/13 14/15/13
f 14/15/14 24/2/14 15/16/14
f 15/16/15 24/2/15 16/17/15
f 16/17/16 24/2/16 17/18/16
f 17/18/17 24/2/17 18/19/17
f 18/19/18 24/2/18 19/20/18
f 19/20/19 24/2/19 20/21/19
f 20/21/20 24/2/20 21/22/20
f 21/22/21 24/2/21 22/23/21
f 22/23/22 24/2/22 23/24/22
f 23/24/23 24/2/23 25/25/23
f 25/25/24 24/2/24 26/26/24
f 26/26/25 24/2/25 27/27/25
f 27/27/26 24/2/26 28/28/26
f 28/29/27 24/2/27 29/30/27
f 29/30/28 24/2/28 30/31/28
f 30/31/29 24/2/29 31/32/29
f 31/32/30 24/2/30 32/33/30
f 32/33/31 24/2/31 33/34/31
f 33/34/32 24/2/32 1/1/32
f 8/9/33 16/35/33 25/36/33
f 34/37/1 57/38/1 35/39/1
f 35/39/2 57/38/2 36/40/2
f 36/40/3 57/38/3 37/41/3
f 37/41/4 57/38/4 38/42/4
f 38/42/5 57/38/5 39/43/5
f 39/43/6 57/38/6 40/44/6
f 40/44/7 57/38/7 41/45/7
f 41/45/8 57/38/8 42/46/8
f 42/46/9 57/38/9 43/47/9
f 43/47/10 57/38/10 44/48/10
f 44/48/11 57/38/11 45/49/11
f 45/49/12 57/38/12 46/50/12
f 46/50/13 57/38/13 47/51/13
f 47/51/14 57/38/14 48/52/14
f 48/52/15 57/38/15 49/53/15
f 49/53/16 57/38/16 50/54/16
f 50/54/17 57/38/17 51/55/17
f 51/55/18 57/38/18 52/56/18
f 52/56/19 57/38/19 53/57/19
f 53/57/20 57/38/20 54/58/20
f 54/58/21 57/38/21 55/59/21
f 55/59/22 57/38/22 56/60/22
f 56/60/23 57/38/23 58/61/23
f 58/61/24 57/38/24 59/62/24
f 59/62/25 57/38/25 60/63/25
f 60/63/26 57/38/26 61/64/26
f 61/64/27 57/38/27 62/65/27
f 62/65/28 57/38/28 63/66/28
f 63/66/29 57/38/29 64/67/29
f 64/67/30 57/38/30 65/68/30
f 65/68/31 57/38/31 66/69/31
f 66/69/34 57/38/34 34/37/34
f 41/45/33 49/53/33 58/61/33
f 67/70/1 90/71/1 68/72/1
f 68/72/2 90/71/2 69/73/2
f 69/73/3 90/71/3 70/74/3
f 70/74/4 90/71/4 71/75/4
f 71/75/5 90/71/5 72/76/5
f 72/76/6 90/71/6 73/77/6
f 73/77/7 90/71/7 74/78/7
f 74/78/8 90/71/8 75/79/8
f 75/79/9 90/71/9 76/80/9
f 76/80/10 90/71/10 77/81/10
f 77/81/11 90/71/11 78/82/11
f 78/82/12 90/71/12 79/83/12
f 79/83/13 90/71/13 80/84/13
f 80/84/14 90/71/14 81/85/14
f 81/85/15 90/71/15 82/86/15
f 82/86/16 90/71/16 83/87/16
f 83/87/17 90/71/17 84/88/17
f 84/88/18 90/71/18 85/89/18
f 85/89/19 90/71/19 86/90/19
f 86/90/20 90/71/20 87/91/20
f 87/91/21 90/71/21 88/92/21
f 88/92/22 90/71/22 89/93/22
f 89/93/23 90/71/23 91/94/23
f 91/94/24 90/71/24 92/95/24
f 92/95/25 90/71/25 93/96/25
f 93/96/26 90/71/26 94/97/26
f 94/97/27 90/71/27 95/98/27
f 95/98/28 90/71/28 96/99/28
f 96/99/29 90/71/29 97/100/29
f 97/100/30 90/71/30 98/101/30
f 98/101/31 90/71/31 99/102/31
f 99/102/32 90/71/32 67/70/32
f 82/86/33 91/94/33 99/102/33
f 100/103/1 123/104/1 101/105/1
f 101/105/2 123/104/2 102/106/2
f 102/106/3 123/104/3 103/107/3
f 103/107/4 123/104/4 104/108/4
f 104/108/5 123/104/5 105/109/5
f 105/109/6 123/104/6 106/110/6
f 106/110/7 123/104/7 107/111/7
f 107/111/8 123/104/8 108/112/8
f 108/112/9 123/104/9 109/113/9
f 109/113/10 123/104/10 110/114/10
f 110/114/11 123/104/11 111/115/11
f 111/115/12 123/104/12 112/116/12
f 112/116/13 123/104/13 113/117/13
f 113/117/14 123/104/14 114/118/14
f 114/118/15 123/104/15 115/119/15
f 115/119/16 123/104/16 116/120/16
f 116/120/17 123/104/17 117/121/17
f 117/121/18 123/104/18 118/122/18
f 118/122/19 123/104/19 119/123/19
f 119/123/20 123/104/20 120/124/20
f 120/124/21 123/104/21 121/125/21
f 121/125/22 123/104/22 122/126/22
f 122/126/23 123/104/23 124/127/23
f 124/127/24 123/104/24 125/128/24
f 125/128/25 123/104/25 126/129/25
f 126/129/26 123/104/26 127/130/26
f 127/130/27 123/104/27 128/131/27
f 128/131/28 123/104/28 129/132/28
f 129/132/29 123/104/29 130/133/29
f 130/133/30 123/104/30 131/134/30
f 131/134/31 123/104/31 132/135/31
f 132/135/34 123/104/34 100/103/34
f 115/119/33 124/127/33 132/135/33
f 133/136/35 136/137/35 135/138/35
f 33/34/33 1/1/33 2/3/33
f 2/3/33 3/4/33 4/5/33
f 4/5/33 5/6/33 6/7/33
f 6/7/33 7/8/33 4/5/33
f 7/8/33 8/9/33 4/5/33
f 8/9/33 9/10/33 10/11/33
f 10/11/33 11/12/33 8/9/33
f 11/12/33 12/139/33 8/9/33
f 12/139/33 13/140/33 16/35/33
f 13/140/33 14/141/33 16/35/33
f 14/141/33 15/142/33 16/35/33
f 16/35/33 17/143/33 18/144/33
f 18/144/33 19/145/33 20/146/33
f 20/146/33 21/147/33 22/148/33
f 22/148/33 23/149/33 25/36/33
f 25/36/33 26/150/33 27/151/33
f 27/151/33 28/29/33 29/30/33
f 29/30/33 30/31/33 33/34/33
f 30/31/33 31/32/33 33/34/33
f 31/32/33 32/33/33 33/34/33
f 33/34/33 2/3/33 4/5/33
f 16/35/33 18/144/33 25/36/33
f 18/144/33 20/146/33 25/36/33
f 20/146/33 22/148/33 25/36/33
f 25/36/33 27/151/33 33/34/33
f 27/151/33 29/30/33 33/34/33
f 33/34/33 4/5/33 8/9/33
f 8/9/33 12/139/33 16/35/33
f 33/34/33 8/9/33 25/36/33
f 66/69/33 34/37/33 35/39/33
f 35/39/33 36/40/33 66/69/33
f 36/40/33 37/41/33 66/69/33
f 37/41/33 38/42/33 39/43/33
f 39/43/33 40/44/33 37/41/33
f 40/44/33 41/45/33 37/41/33
f 41/45/33 42/46/33 43/47/33
f 43/47/33 44/48/33 41/45/33
f 44/48/33 45/49/33 41/45/33
f 45/49/33 46/50/33 47/51/33
f 47/51/33 48/52/33 45/49/33
f 48/52/33 49/53/33 45/49/33
f 49/53/33 50/54/33 51/55/33
f 51/55/33 52/56/33 53/57/33
f 53/57/33 54/58/33 55/59/33
f 55/59/33 56/60/33 58/61/33
f 58/61/33 59/62/33 62/65/33
f 59/62/33 60/63/33 62/65/33
f 60/63/33 61/64/33 62/65/33
f 62/65/33 63/66/33 64/67/33
f 64/67/33 65/68/33 62/65/33
f 65/68/33 66/69/33 62/65/33
f 49/53/33 51/55/33 58/61/33
f 51/55/33 53/57/33 58/61/33
f 53/57/33 55/59/33 58/61/33
f 66/69/33 37/41/33 41/45/33
f 41/45/33 45/49/33 49/53/33
f 58/61/33 62/65/33 66/69/33
f 66/69/33 41/45/33 58/61/33
f 99/102/33 67/70/33 68/72/33
f 68/72/33 69/73/33 99/102/33
f 69/73/33 70/74/33 99/102/33
f 70/74/33 71/75/33 72/76/33
f 72/76/33 73/77/33 70/74/33
f 73/77/33 74/78/33 70/74/33
f 74/78/33 75/79/33 76/80/33
f 76/80/33 77/81/33 74/78/33
f 77/81/33 78/82/33 74/78/33
f 78/82/33 79/83/33 80/84/33
f 80/84/33 81/85/33 82/86/33
f 82/86/33 83/87/33 84/88/33
f 84/88/33 85/89/33 82/86/33
f 85/89/33 86/90/33 82/86/33
f 86/90/33 87/91/33 88/92/33
f 88/92/33 89/93/33 91/94/33
f 91/94/33 92/95/33 95/98/33
f 92/95/33 93/96/33 95/98/33
f 93/96/33 94/97/33 95/98/33
f 95/98/33 96/99/33 99/102/33
f 96/99/33 97/100/33 99/102/33
f 97/100/33 98/101/33 99/102/33
f 78/82/33 80/84/33 74/78/33
f 80/84/33 82/86/33 74/78/33
f 86/90/33 88/92/33 91/94/33
f 99/102/33 70/74/33 74/78/33
f 82/86/33 86/90/33 91/94/33
f 91/94/33 95/98/33 99/102/33
f 99/102/33 74/78/33 82/86/33
f 132/135/33 100/103/33 101/105/33
f 101/105/33 102/106/33 103/107/33
f 103/107/33 104/108/33 105/109/33
f 105/109/33 106/110/33 103/107/33
f 106/110/33 107/111/33 103/107/33
f 107/111/33 108/112/33 109/113/33
f 109/113/33 110/114/33 107/111/33
f 110/114/33 111/115/33 107/111/33
f 111/115/33 112/116/33 115/119/33
f 112/116/33 113/117/33 115/119/33
f 113/117/33 114/118/33 115/119/33
f 115/119/33 116/120/33 117/121/33
f 117/121/33 118/122/33 119/123/33
f 119/123/33 120/124/33 121/125/33
f 121/125/33 122/126/33 119/123/33
f 122/126/33 124/127/33 119/123/33
f 124/127/33 125/128/33 126/129/33
f 126/129/33 127/130/33 124/127/33
f 127/130/33 128/131/33 124/127/33
f 128/131/33 129/132/33 130/133/33
f 130/133/33 131/134/33 128/131/33
f 131/134/33 132/135/33 128/131/33
f 132/135/33 101/105/33 107/111/33
f 101/105/33 103/107/33 107/111/33
f 115/119/33 117/121/33 124/127/33
f 117/121/33 119/123/33 124/127/33
f 107/111/33 111/115/33 115/119/33
f 124/127/33 128/131/33 132/135/33
f 132/135/33 107/111/33 115/119/33
f 133/136/35 134/152/35 136/137/35
