# Blender v2.79 (sub 0) OBJ File: ''
# www.blender.org
mtllib grass_bg.mtl
o Cube_Cube.001
v -400.000000 5.834695 400.000000
v -400.000000 7.834695 400.000000
v -400.000000 5.834695 -400.000000
v -400.000000 7.834695 -400.000000
v 400.000000 5.834695 400.000000
v 400.000000 7.834695 400.000000
v 400.000000 5.834695 -400.000000
v 400.000000 7.834695 -400.000000
vt -6.667769 -6.667769
vt -6.667769 7.667769
vt -6.667769 -6.667769
vt -6.667769 7.667769
vt 7.667769 7.667769
vt 7.667769 7.667769
vt 7.667769 -6.667769
vt 7.667769 -6.667769
vn -1.0000 0.0000 0.0000
vn 0.0000 0.0000 -1.0000
vn 1.0000 0.0000 0.0000
vn 0.0000 0.0000 1.0000
vn 0.0000 -1.0000 0.0000
vn 0.0000 1.0000 0.0000
usemtl None
s off
f 2/1/1 3/2/1 1/3/1
f 4/4/2 7/5/2 3/2/2
f 8/6/3 5/7/3 7/5/3
f 6/8/4 1/3/4 5/7/4
f 7/5/5 1/3/5 3/2/5
f 4/4/6 6/8/6 8/6/6
f 2/1/1 4/4/1 3/2/1
f 4/4/2 8/6/2 7/5/2
f 8/6/3 6/8/3 5/7/3
f 6/8/4 2/1/4 1/3/4
f 7/5/5 5/7/5 1/3/5
f 4/4/6 2/1/6 6/8/6
