# Blender v2.76 (sub 0) OBJ File: ''
# www.blender.org
mtllib kawaii_background.mtl
o Cube
v 200.000000 -0.294233 -199.999985
v 200.000000 -0.294233 200.000000
v -200.000031 -0.294233 199.999969
v -199.999924 -0.294233 -200.000076
v 200.000092 0.294233 -199.999893
v 199.999863 0.294233 200.000122
v -200.000076 0.294233 199.999924
v -199.999985 0.294233 -200.000000
vt 0.980185 0.007725
vt 0.019815 0.007726
vt 0.019816 0.992275
vt 0.006543 1.005882
vt 0.006542 -0.005881
vt 0.993457 -0.005882
vt 0.993458 1.005881
vt 0.980185 0.992275
vn 0.000000 -1.000000 0.000000
vn 0.000000 1.000000 0.000000
vn 1.000000 0.000300 0.000000
vn -0.000000 0.000100 1.000000
vn -1.000000 -0.000100 -0.000000
vn 0.000000 0.000100 -1.000000
vn 1.000000 -0.000100 0.000000
vn -0.000000 -0.000200 1.000000
vn 0.000000 0.000200 -1.000000
usemtl Material
s off
f 2/1/1 3/2/1 4/3/1
f 8/4/2 7/5/2 6/6/2
f 5/7/3 6/6/3 2/1/3
f 6/6/4 7/5/4 3/2/4
f 3/2/5 7/5/5 8/4/5
f 1/8/6 4/3/6 8/4/6
f 1/8/1 2/1/1 4/3/1
f 5/7/2 8/4/2 6/6/2
f 1/8/7 5/7/7 2/1/7
f 2/1/8 6/6/8 3/2/8
f 4/3/5 3/2/5 8/4/5
f 5/7/9 1/8/9 8/4/9
