# Blender v2.79 (sub 0) OBJ File: 'map_track_flat.blend'
# www.blender.org
mtllib map_track_flat.mtl
o Track_Cube.002
v -20.000000 8.136874 35.000000
v -20.000000 10.000000 35.000000
v -20.000000 8.136874 -35.000000
v -20.000000 10.000000 -35.000000
v 20.000000 8.136874 35.000000
v 20.000000 10.000000 35.000000
v 20.000000 8.136874 -35.000000
v 20.000000 10.000000 -35.000000
v -20.000000 10.000000 35.000000
v -20.000000 10.000000 -35.000000
v 20.000000 10.000000 35.000000
v 20.000000 10.000000 -35.000000
vt 0.333333 0.333333
vt 0.666667 0.000000
vt 0.666667 0.333333
vt 1.000000 1.000000
vt 0.000000 0.000000
vt 1.000000 0.000000
vt 0.333333 0.000000
vt 0.000000 1.000000
vt 0.000000 0.666667
vt 0.333333 0.333333
vt 0.333333 0.666667
vt 0.000000 0.333333
vt 0.333333 0.000000
vt 0.333333 0.333333
vt 0.665934 0.651774
vt 0.333333 0.666667
vt 0.666667 0.333333
vt 1.000000 0.000000
vt 1.000000 0.333333
vt 0.000000 0.000000
vt 0.666667 0.333333
vt 0.666667 0.000000
vn -1.0000 0.0000 0.0000
vn 0.0000 1.0000 0.0000
vn 0.0000 0.0000 -1.0000
vn 1.0000 0.0000 0.0000
vn 0.0000 0.0000 1.0000
vn 0.0000 -1.0000 0.0000
usemtl Material
s off
f 2/1/1 3/2/1 1/3/1
f 10/4/2 11/5/2 12/6/2
f 2/1/1 4/7/1 3/2/1
f 10/4/2 9/8/2 11/5/2
usemtl Material_map_track_flat_t.png
f 4/9/3 7/10/3 3/11/3
f 8/12/4 5/13/4 7/10/4
f 6/14/5 1/15/5 5/16/5
f 7/17/6 1/18/6 3/19/6
f 4/9/3 8/12/3 7/10/3
f 8/12/4 6/20/4 5/13/4
f 6/14/5 2/21/5 1/15/5
f 7/17/6 5/22/6 1/18/6	