# Blender v2.79 (sub 0) OBJ File: 'map_track_turn.blend'
# www.blender.org
mtllib map_track_turn_border_T.mtl
o WALL-R_Cube.001
v 35.000004 17.829681 -20.000002
v -35.000000 2.170318 -19.999998
v 35.000000 2.170306 -20.000002
v -34.999996 17.829693 -19.999998
v -35.000000 2.170318 -21.999998
v -34.999996 17.829693 -21.999998
v 35.000000 2.170306 -22.000002
v 35.000004 17.829681 -22.000002
vn 0.0000 -0.0000 1.0000
vn -1.0000 0.0000 0.0000
vn -0.0000 0.0000 -1.0000
vn 1.0000 -0.0000 0.0000
vn -0.0000 -1.0000 0.0000
vn 0.0000 1.0000 0.0000
usemtl None.001
s 1
f 1//1 2//1 3//1
f 4//2 5//2 2//2
f 6//3 7//3 5//3
f 8//4 3//4 7//4
f 5//5 3//5 2//5
f 4//6 8//6 6//6
f 1//1 4//1 2//1
f 4//2 6//2 5//2
f 6//3 8//3 7//3
f 8//4 1//4 3//4
f 5//5 7//5 3//5
f 4//6 1//6 8//6
