# Blender v2.79 (sub 0) OBJ File: 'map_track_flat.blend'
# www.blender.org
mtllib map_track_flat_border_R.mtl
o BorderR_Cylinder.001
v 10.000000 11.000011 -70.000000
v 10.000000 10.999989 70.000000
v 10.195090 10.980797 -70.000000
v 10.195090 10.980774 70.000000
v 10.382684 10.923891 -70.000000
v 10.382684 10.923868 70.000000
v 10.555571 10.831481 -70.000000
v 10.555571 10.831458 70.000000
v 10.707107 10.707118 -70.000000
v 10.707107 10.707095 70.000000
v 10.831470 10.555582 -70.000000
v 10.831470 10.555559 70.000000
v 10.923880 10.382695 -70.000000
v 10.923880 10.382672 70.000000
v 10.980785 10.195102 -70.000000
v 10.980785 10.195079 70.000000
v 11.000000 10.000011 -70.000000
v 11.000000 9.999989 70.000000
v 10.980785 9.804921 -70.000000
v 10.980785 9.804898 70.000000
v 10.923880 9.617328 -70.000000
v 10.923880 9.617306 70.000000
v 10.831470 9.444441 -70.000000
v 10.831470 9.444418 70.000000
v 10.707107 9.292905 -70.000000
v 10.707107 9.292882 70.000000
v 10.555571 9.168542 -70.000000
v 10.555571 9.168519 70.000000
v 10.382683 9.076132 -70.000000
v 10.382683 9.076109 70.000000
v 10.195090 9.019226 -70.000000
v 10.195090 9.019203 70.000000
v 10.000000 9.000011 -70.000000
v 10.000000 8.999989 70.000000
v 9.804910 9.019226 -70.000000
v 9.804910 9.019203 70.000000
v 9.617316 9.076132 -70.000000
v 9.617316 9.076109 70.000000
v 9.444429 9.168542 -70.000000
v 9.444429 9.168519 70.000000
v 9.292892 9.292905 -70.000000
v 9.292892 9.292882 70.000000
v 9.168530 9.444442 -70.000000
v 9.168530 9.444419 70.000000
v 9.076120 9.617329 -70.000000
v 9.076120 9.617306 70.000000
v 9.019215 9.804922 -70.000000
v 9.019215 9.804899 70.000000
v 9.000000 10.000012 -70.000000
v 9.000000 9.999990 70.000000
v 9.019215 10.195103 -70.000000
v 9.019215 10.195080 70.000000
v 9.076121 10.382696 -70.000000
v 9.076121 10.382673 70.000000
v 9.168531 10.555583 -70.000000
v 9.168531 10.555560 70.000000
v 9.292894 10.707119 -70.000000
v 9.292894 10.707096 70.000000
v 9.444431 10.831482 -70.000000
v 9.444431 10.831459 70.000000
v 9.617318 10.923891 -70.000000
v 9.617318 10.923869 70.000000
v 9.804912 10.980797 -70.000000
v 9.804912 10.980774 70.000000
vt 0.468749 0.000018
vt 0.500000 0.999982
vt 0.468751 0.999982
vt 0.499999 0.000018
vt 0.531250 0.999982
vt 0.531250 0.000018
vt 0.562499 0.999982
vt 0.562500 0.000018
vt 0.593749 0.999982
vt 0.593751 0.000018
vt 0.624999 0.999982
vt 0.625001 0.000018
vt 0.656248 0.999982
vt 0.656252 0.000018
vt 0.687498 0.999982
vt 0.687502 0.000018
vt 0.718748 0.999982
vt 0.718752 0.000018
vt 0.749997 0.999982
vt 0.750002 0.000018
vt 0.781247 0.999982
vt 0.781252 0.000018
vt 0.812497 0.999982
vt 0.812502 0.000018
vt 0.843748 0.999982
vt 0.843752 0.000018
vt 0.874998 0.999982
vt 0.875002 0.000018
vt 0.906248 0.999982
vt 0.906252 0.000018
vt 0.937499 0.999982
vt 0.937501 0.000018
vt 0.968749 0.999982
vt 0.968751 0.000018
vt 0.999999 0.999982
vt 0.000001 0.000018
vt 0.031250 0.999982
vt -0.000000 0.999982
vt 0.031250 0.000018
vt 0.062501 0.999982
vt 0.062500 0.000018
vt 0.093751 0.999982
vt 0.093749 0.000018
vt 0.125001 0.999982
vt 0.124999 0.000018
vt 0.156252 0.999982
vt 0.156248 0.000018
vt 0.187502 0.999982
vt 0.187498 0.000018
vt 0.218752 0.999982
vt 0.218748 0.000018
vt 0.250003 0.999982
vt 0.249998 0.000018
vt 0.281253 0.999982
vt 0.281248 0.000018
vt 0.312503 0.999982
vt 0.312498 0.000018
vt 0.343752 0.999982
vt 0.343748 0.000018
vt 0.375002 0.999982
vt 0.374998 0.000018
vt 0.406252 0.999982
vt 0.406248 0.000018
vt 0.437502 0.999982
vt 0.437499 0.000018
vt 1.000000 0.000018
vn 0.0980 0.9952 0.0000
vn 0.2903 0.9569 0.0000
vn 0.4714 0.8819 0.0000
vn 0.6344 0.7730 0.0000
vn 0.7730 0.6344 0.0000
vn 0.8819 0.4714 0.0000
vn 0.9569 0.2903 0.0000
vn 0.9952 0.0980 0.0000
vn 0.9952 -0.0980 -0.0000
vn 0.9569 -0.2903 -0.0000
vn 0.8819 -0.4714 -0.0000
vn 0.7730 -0.6344 -0.0000
vn 0.6344 -0.7730 -0.0000
vn 0.4714 -0.8819 -0.0000
vn 0.2903 -0.9569 -0.0000
vn 0.0980 -0.9952 -0.0000
vn -0.0980 -0.9952 -0.0000
vn -0.2903 -0.9569 -0.0000
vn -0.4714 -0.8819 -0.0000
vn -0.6344 -0.7730 -0.0000
vn -0.7730 -0.6344 -0.0000
vn -0.8819 -0.4714 -0.0000
vn -0.9569 -0.2903 -0.0000
vn -0.9952 -0.0980 -0.0000
vn -0.9952 0.0980 0.0000
vn -0.9569 0.2903 0.0000
vn -0.8819 0.4714 0.0000
vn -0.7730 0.6344 0.0000
vn -0.6344 0.7730 0.0000
vn -0.4714 0.8819 0.0000
vn -0.2903 0.9569 0.0000
vn -0.0980 0.9952 0.0000
usemtl None
s off
f 2/1/1 3/2/1 1/3/1
f 4/4/2 5/5/2 3/2/2
f 6/6/3 7/7/3 5/5/3
f 8/8/4 9/9/4 7/7/4
f 10/10/5 11/11/5 9/9/5
f 12/12/6 13/13/6 11/11/6
f 14/14/7 15/15/7 13/13/7
f 16/16/8 17/17/8 15/15/8
f 18/18/9 19/19/9 17/17/9
f 20/20/10 21/21/10 19/19/10
f 22/22/11 23/23/11 21/21/11
f 24/24/12 25/25/12 23/23/12
f 26/26/13 27/27/13 25/25/13
f 28/28/14 29/29/14 27/27/14
f 30/30/15 31/31/15 29/29/15
f 32/32/16 33/33/16 31/31/16
f 34/34/17 35/35/17 33/33/17
f 36/36/18 37/37/18 35/38/18
f 38/39/19 39/40/19 37/37/19
f 40/41/20 41/42/20 39/40/20
f 42/43/21 43/44/21 41/42/21
f 44/45/22 45/46/22 43/44/22
f 46/47/23 47/48/23 45/46/23
f 48/49/24 49/50/24 47/48/24
f 50/51/25 51/52/25 49/50/25
f 52/53/26 53/54/26 51/52/26
f 54/55/27 55/56/27 53/54/27
f 56/57/28 57/58/28 55/56/28
f 58/59/29 59/60/29 57/58/29
f 60/61/30 61/62/30 59/60/30
f 62/63/31 63/64/31 61/62/31
f 64/65/32 1/3/32 63/64/32
f 2/1/1 4/4/1 3/2/1
f 4/4/2 6/6/2 5/5/2
f 6/6/3 8/8/3 7/7/3
f 8/8/4 10/10/4 9/9/4
f 10/10/5 12/12/5 11/11/5
f 12/12/6 14/14/6 13/13/6
f 14/14/7 16/16/7 15/15/7
f 16/16/8 18/18/8 17/17/8
f 18/18/9 20/20/9 19/19/9
f 20/20/10 22/22/10 21/21/10
f 22/22/11 24/24/11 23/23/11
f 24/24/12 26/26/12 25/25/12
f 26/26/13 28/28/13 27/27/13
f 28/28/14 30/30/14 29/29/14
f 30/30/15 32/32/15 31/31/15
f 32/32/16 34/34/16 33/33/16
f 34/34/17 36/66/17 35/35/17
f 36/36/18 38/39/18 37/37/18
f 38/39/19 40/41/19 39/40/19
f 40/41/20 42/43/20 41/42/20
f 42/43/21 44/45/21 43/44/21
f 44/45/22 46/47/22 45/46/22
f 46/47/23 48/49/23 47/48/23
f 48/49/24 50/51/24 49/50/24
f 50/51/25 52/53/25 51/52/25
f 52/53/26 54/55/26 53/54/26
f 54/55/27 56/57/27 55/56/27
f 56/57/28 58/59/28 57/58/28
f 58/59/29 60/61/29 59/60/29
f 60/61/30 62/63/30 61/62/30
f 62/63/31 64/65/31 63/64/31
f 64/65/32 2/1/32 1/3/32
