# Blender v2.79 (sub 0) OBJ File: 'map_track_turn.blend'
# www.blender.org
mtllib map_track_turn_border_T.mtl
o WALL-R_Cube.001
v 20.000002 17.829683 -20.000000
v -20.000000 2.170315 -20.000000
v 20.000000 2.170309 -20.000000
v -19.999998 17.829691 -20.000000
v -20.000000 2.170315 -22.000000
v -19.999998 17.829691 -22.000000
v 20.000000 2.170309 -22.000000
v 20.000002 17.829683 -22.000000
vn -0.0000 0.0000 1.0000
vn -1.0000 0.0000 0.0000
vn 0.0000 0.0000 -1.0000
vn 1.0000 -0.0000 0.0000
vn -0.0000 -1.0000 0.0000
vn 0.0000 1.0000 0.0000
usemtl None.001
s 1
f 1//1 2//1 3//1
f 4//2 5//2 2//2
f 6//3 7//3 5//3
f 8//4 3//4 7//4
f 5//5 3//5 2//5
f 4//6 8//6 6//6
f 1//1 4//1 2//1
f 4//2 6//2 5//2
f 6//3 8//3 7//3
f 8//4 1//4 3//4
f 5//5 7//5 3//5
f 4//6 1//6 8//6
