# Blender v2.79 (sub 0) OBJ File: 'map_track_turn.blend'
# www.blender.org
mtllib map_track_turn_border_R.mtl
o BorderL_Cylinder.000
v 10.000003 10.999863 -9.999997
v 9.804907 10.980671 10.000003
v 9.999997 10.999886 10.000003
v 9.804913 10.980648 -9.999997
v 9.617313 10.923766 10.000003
v 9.617319 10.923743 -9.999997
v 9.444427 10.831357 10.000003
v 9.444432 10.831334 -9.999997
v 9.292891 10.706996 10.000003
v 9.292896 10.706973 -9.999997
v 9.168528 10.555461 10.000003
v 9.168533 10.555438 -9.999997
v 9.076118 10.382576 10.000003
v 9.076123 10.382553 -9.999997
v 9.019212 10.194985 10.000003
v 9.019217 10.194963 -9.999997
v 8.999997 9.999897 10.000003
v 9.000003 9.999874 -9.999997
v 9.019212 9.804809 10.000003
v 9.019217 9.804786 -9.999997
v 9.076118 9.617218 10.000003
v 9.076123 9.617196 -9.999997
v 9.168528 9.444333 10.000003
v 9.168533 9.444310 -9.999997
v 9.292891 9.292798 10.000003
v 9.292896 9.292775 -9.999997
v 9.444427 9.168437 10.000003
v 9.444432 9.168414 -9.999997
v 9.617314 9.076028 10.000003
v 9.617320 9.076005 -9.999997
v 9.804907 9.019123 10.000003
v 9.804913 9.019100 -9.999997
v 9.999997 8.999908 10.000003
v 10.000003 8.999886 -9.999997
v 10.195087 9.019123 10.000003
v 10.195093 9.019100 -9.999997
v 10.382681 9.076028 10.000003
v 10.382687 9.076005 -9.999997
v 10.555568 9.168437 10.000003
v 10.555573 9.168414 -9.999997
v 10.707105 9.292798 10.000003
v 10.707110 9.292775 -9.999997
v 10.831467 9.444334 10.000003
v 10.831472 9.444311 -9.999997
v 10.923877 9.617219 10.000003
v 10.923882 9.617196 -9.999997
v 10.980783 9.804810 10.000003
v 10.980788 9.804787 -9.999997
v 10.999997 9.999898 10.000003
v 11.000003 9.999876 -9.999997
v 10.980783 10.194986 10.000003
v 10.980788 10.194963 -9.999997
v 10.923876 10.382577 10.000003
v 10.923882 10.382554 -9.999997
v 10.831466 10.555462 10.000003
v 10.831471 10.555439 -9.999997
v 10.707103 10.706997 10.000003
v 10.707108 10.706974 -9.999997
v 10.555566 10.831358 10.000003
v 10.555572 10.831335 -9.999997
v 10.382679 10.923766 10.000003
v 10.382685 10.923744 -9.999997
v 10.195086 10.980671 10.000003
v 10.195091 10.980648 -9.999997
vt 0.468749 0.000018
vt 0.500000 0.999982
vt 0.468751 0.999982
vt 0.499999 0.000018
vt 0.531250 0.999982
vt 0.531250 0.000018
vt 0.562499 0.999982
vt 0.562500 0.000018
vt 0.593749 0.999982
vt 0.593751 0.000018
vt 0.624999 0.999982
vt 0.625001 0.000018
vt 0.656248 0.999982
vt 0.656252 0.000018
vt 0.687498 0.999982
vt 0.687502 0.000018
vt 0.718748 0.999982
vt 0.718752 0.000018
vt 0.749997 0.999982
vt 0.750002 0.000018
vt 0.781247 0.999982
vt 0.781252 0.000018
vt 0.812497 0.999982
vt 0.812502 0.000018
vt 0.843748 0.999982
vt 0.843752 0.000018
vt 0.874998 0.999982
vt 0.875002 0.000018
vt 0.906248 0.999982
vt 0.906252 0.000018
vt 0.937499 0.999982
vt 0.937501 0.000018
vt 0.968749 0.999982
vt 0.968751 0.000018
vt 0.999999 0.999982
vt 0.000001 0.000018
vt 0.031250 0.999982
vt -0.000000 0.999982
vt 0.031250 0.000018
vt 0.062501 0.999982
vt 0.062500 0.000018
vt 0.093751 0.999982
vt 0.093749 0.000018
vt 0.125001 0.999982
vt 0.124999 0.000018
vt 0.156252 0.999982
vt 0.156248 0.000018
vt 0.187502 0.999982
vt 0.187498 0.000018
vt 0.218752 0.999982
vt 0.218748 0.000018
vt 0.250003 0.999982
vt 0.249998 0.000018
vt 0.281253 0.999982
vt 0.281248 0.000018
vt 0.312503 0.999982
vt 0.312498 0.000018
vt 0.343752 0.999982
vt 0.343748 0.000018
vt 0.375002 0.999982
vt 0.374998 0.000018
vt 0.406252 0.999982
vt 0.406248 0.000018
vt 0.437502 0.999982
vt 0.437499 0.000018
vt 1.000000 0.000018
vn -0.0980 0.9952 -0.0000
vn -0.2903 0.9569 -0.0000
vn -0.4714 0.8819 -0.0000
vn -0.6344 0.7730 -0.0000
vn -0.7730 0.6344 -0.0000
vn -0.8819 0.4714 -0.0000
vn -0.9569 0.2903 -0.0000
vn -0.9952 0.0980 -0.0000
vn -0.9952 -0.0980 -0.0000
vn -0.9569 -0.2903 0.0000
vn -0.8819 -0.4714 0.0000
vn -0.7730 -0.6344 0.0000
vn -0.6344 -0.7730 0.0000
vn -0.4714 -0.8819 0.0000
vn -0.2903 -0.9569 0.0000
vn -0.0980 -0.9952 0.0000
vn 0.0980 -0.9952 0.0000
vn 0.2903 -0.9569 0.0000
vn 0.4714 -0.8819 0.0000
vn 0.6344 -0.7730 0.0000
vn 0.7730 -0.6344 0.0000
vn 0.8819 -0.4714 0.0000
vn 0.9569 -0.2903 0.0000
vn 0.9952 -0.0980 0.0000
vn 0.9952 0.0980 0.0000
vn 0.9569 0.2903 -0.0000
vn 0.8819 0.4714 -0.0000
vn 0.7730 0.6344 -0.0000
vn 0.6344 0.7730 -0.0000
vn 0.4714 0.8819 -0.0000
vn 0.2903 0.9569 -0.0000
vn 0.0980 0.9952 -0.0000
usemtl None
s 1
f 1/1/1 2/2/1 3/3/1
f 4/4/2 5/5/2 2/2/2
f 6/6/3 7/7/3 5/5/3
f 8/8/4 9/9/4 7/7/4
f 10/10/5 11/11/5 9/9/5
f 12/12/6 13/13/6 11/11/6
f 14/14/7 15/15/7 13/13/7
f 16/16/8 17/17/8 15/15/8
f 18/18/9 19/19/9 17/17/9
f 20/20/10 21/21/10 19/19/10
f 22/22/11 23/23/11 21/21/11
f 24/24/12 25/25/12 23/23/12
f 26/26/13 27/27/13 25/25/13
f 28/28/14 29/29/14 27/27/14
f 30/30/15 31/31/15 29/29/15
f 32/32/16 33/33/16 31/31/16
f 34/34/17 35/35/17 33/33/17
f 36/36/18 37/37/18 35/38/18
f 38/39/19 39/40/19 37/37/19
f 40/41/20 41/42/20 39/40/20
f 42/43/21 43/44/21 41/42/21
f 44/45/22 45/46/22 43/44/22
f 46/47/23 47/48/23 45/46/23
f 48/49/24 49/50/24 47/48/24
f 50/51/25 51/52/25 49/50/25
f 52/53/26 53/54/26 51/52/26
f 54/55/27 55/56/27 53/54/27
f 56/57/28 57/58/28 55/56/28
f 58/59/29 59/60/29 57/58/29
f 60/61/30 61/62/30 59/60/30
f 62/63/31 63/64/31 61/62/31
f 64/65/32 3/3/32 63/64/32
f 1/1/1 4/4/1 2/2/1
f 4/4/2 6/6/2 5/5/2
f 6/6/3 8/8/3 7/7/3
f 8/8/4 10/10/4 9/9/4
f 10/10/5 12/12/5 11/11/5
f 12/12/6 14/14/6 13/13/6
f 14/14/7 16/16/7 15/15/7
f 16/16/8 18/18/8 17/17/8
f 18/18/9 20/20/9 19/19/9
f 20/20/10 22/22/10 21/21/10
f 22/22/11 24/24/11 23/23/11
f 24/24/12 26/26/12 25/25/12
f 26/26/13 28/28/13 27/27/13
f 28/28/14 30/30/14 29/29/14
f 30/30/15 32/32/15 31/31/15
f 32/32/16 34/34/16 33/33/16
f 34/34/17 36/66/17 35/35/17
f 36/36/18 38/39/18 37/37/18
f 38/39/19 40/41/19 39/40/19
f 40/41/20 42/43/20 41/42/20
f 42/43/21 44/45/21 43/44/21
f 44/45/22 46/47/22 45/46/22
f 46/47/23 48/49/23 47/48/23
f 48/49/24 50/51/24 49/50/24
f 50/51/25 52/53/25 51/52/25
f 52/53/26 54/55/26 53/54/26
f 54/55/27 56/57/27 55/56/27
f 56/57/28 58/59/28 57/58/28
f 58/59/29 60/61/29 59/60/29
f 60/61/30 62/63/30 61/62/30
f 62/63/31 64/65/31 63/64/31
f 64/65/32 1/1/32 3/3/32
