# Blender v2.79 (sub 0) OBJ File: 'map_track_flat.blend'
# www.blender.org
mtllib map_track_flat_border.mtl
o BorderR_Cylinder.001
v 10.000000 11.000002 -10.000000
v 10.000000 10.999998 10.000000
v 10.195090 10.980787 -10.000000
v 10.195090 10.980783 10.000000
v 10.382684 10.923882 -10.000000
v 10.382684 10.923878 10.000000
v 10.555571 10.831471 -10.000000
v 10.555571 10.831468 10.000000
v 10.707107 10.707108 -10.000000
v 10.707107 10.707106 10.000000
v 10.831470 10.555572 -10.000000
v 10.831470 10.555569 10.000000
v 10.923880 10.382685 -10.000000
v 10.923880 10.382682 10.000000
v 10.980785 10.195092 -10.000000
v 10.980785 10.195088 10.000000
v 11.000000 10.000002 -10.000000
v 11.000000 9.999998 10.000000
v 10.980785 9.804912 -10.000000
v 10.980785 9.804908 10.000000
v 10.923880 9.617318 -10.000000
v 10.923880 9.617315 10.000000
v 10.831470 9.444431 -10.000000
v 10.831470 9.444428 10.000000
v 10.707107 9.292894 -10.000000
v 10.707107 9.292892 10.000000
v 10.555571 9.168532 -10.000000
v 10.555571 9.168529 10.000000
v 10.382683 9.076122 -10.000000
v 10.382683 9.076118 10.000000
v 10.195090 9.019217 -10.000000
v 10.195090 9.019213 10.000000
v 10.000000 9.000002 -10.000000
v 10.000000 8.999998 10.000000
v 9.804910 9.019217 -10.000000
v 9.804910 9.019213 10.000000
v 9.617316 9.076122 -10.000000
v 9.617316 9.076119 10.000000
v 9.444429 9.168532 -10.000000
v 9.444429 9.168530 10.000000
v 9.292892 9.292895 -10.000000
v 9.292892 9.292892 10.000000
v 9.168530 9.444432 -10.000000
v 9.168530 9.444428 10.000000
v 9.076120 9.617319 -10.000000
v 9.076120 9.617315 10.000000
v 9.019215 9.804913 -10.000000
v 9.019215 9.804909 10.000000
v 9.000000 10.000003 -10.000000
v 9.000000 9.999999 10.000000
v 9.019215 10.195093 -10.000000
v 9.019215 10.195089 10.000000
v 9.076121 10.382686 -10.000000
v 9.076121 10.382683 10.000000
v 9.168531 10.555573 -10.000000
v 9.168531 10.555570 10.000000
v 9.292894 10.707109 -10.000000
v 9.292894 10.707106 10.000000
v 9.444431 10.831472 -10.000000
v 9.444431 10.831469 10.000000
v 9.617318 10.923882 -10.000000
v 9.617318 10.923879 10.000000
v 9.804912 10.980787 -10.000000
v 9.804912 10.980783 10.000000
vt 0.595482 0.334407
vt 0.554685 0.000000
vt 0.595482 0.000000
vt 0.554686 0.334407
vt 0.514673 0.000000
vt 0.514673 0.334407
vt 0.476982 0.000000
vt 0.476982 0.334407
vt 0.443061 0.000000
vt 0.443061 0.334407
vt 0.414213 0.000000
vt 0.264046 1.000000
vt 0.230125 0.665593
vt 0.264046 0.665593
vt 0.230125 1.000000
vt 0.192434 0.665593
vt 0.192434 1.000000
vt 0.152421 0.665593
vt 0.152421 1.000000
vt 0.111625 0.665593
vt 0.111625 1.000000
vt 0.071612 0.665593
vt 0.071612 1.000000
vt 0.033921 0.665593
vt 0.033921 1.000000
vt 0.000000 0.665593
vt 0.707107 0.334407
vt 0.741028 0.668814
vt 0.707107 0.668814
vt 0.741028 0.334407
vt 0.778719 0.668814
vt 0.778719 0.334407
vt 0.818731 0.668814
vt 0.818731 0.334407
vt 0.859528 0.668814
vt 0.859528 0.334407
vt 0.899540 0.668814
vt 0.899540 0.334407
vt 0.937231 0.668814
vt 0.937231 0.334407
vt 0.971152 0.668814
vt 0.971152 0.334407
vt 1.000000 0.668814
vt 0.414213 0.334407
vt 0.448135 0.668814
vt 0.414213 0.668814
vt 0.448134 0.334407
vt 0.485826 0.668814
vt 0.485826 0.334407
vt 0.525838 0.668814
vt 0.525838 0.334407
vt 0.566635 0.668814
vt 0.566635 0.334407
vt 0.606647 0.668814
vt 0.606647 0.334407
vt 0.644338 0.668814
vt 0.644338 0.334407
vt 0.678259 0.668814
vt 0.678259 0.334407
vt 0.707107 0.668814
vt 0.735954 0.334407
vt 0.707106 0.000000
vt 0.735954 0.000000
vt 0.707106 0.334407
vt 0.673185 0.000000
vt 0.000000 0.515584
vt 0.186708 0.332797
vt 0.414213 0.482806
vt 0.673185 0.334407
vt 0.635494 0.000000
vt 0.635494 0.334407
vt 0.146696 0.006395
vt 0.406254 0.117862
vt 0.267517 0.326402
vt 0.414213 0.334407
vt 0.000000 1.000000
vt 1.000000 0.334407
vt 0.707107 0.334407
vt 0.227505 0.665593
vt 0.186708 0.665593
vt 0.146696 0.659199
vt 0.109005 0.646655
vt 0.075084 0.628445
vt 0.046237 0.605268
vt 0.023571 0.578014
vt 0.007959 0.547732
vt 0.000000 0.482806
vt 0.007959 0.450658
vt 0.023571 0.420376
vt 0.046236 0.393122
vt 0.075084 0.369945
vt 0.109005 0.351735
vt 0.146696 0.339191
vt 0.227505 0.332797
vt 0.267517 0.339191
vt 0.305209 0.351735
vt 0.339130 0.369945
vt 0.367977 0.393122
vt 0.390642 0.420376
vt 0.406254 0.450658
vt 0.414213 0.515584
vt 0.406254 0.547731
vt 0.390642 0.578014
vt 0.367977 0.605268
vt 0.339130 0.628445
vt 0.305209 0.646655
vt 0.267518 0.659199
vt 0.007959 0.214935
vt 0.000000 0.182787
vt 0.000000 0.150010
vt 0.007959 0.117862
vt 0.023571 0.087579
vt 0.046236 0.060326
vt 0.075084 0.037148
vt 0.109005 0.018938
vt 0.186708 0.000000
vt 0.227505 0.000000
vt 0.267517 0.006395
vt 0.305208 0.018938
vt 0.339129 0.037148
vt 0.367977 0.060326
vt 0.390642 0.087579
vt 0.414213 0.150009
vt 0.414213 0.182787
vt 0.406254 0.214935
vt 0.390642 0.245217
vt 0.367977 0.272471
vt 0.339129 0.295648
vt 0.305208 0.313859
vt 0.227505 0.332797
vt 0.186708 0.332797
vt 0.146696 0.326402
vt 0.109005 0.313858
vt 0.075084 0.295648
vt 0.046236 0.272471
vt 0.023571 0.245217
vn 0.0980 0.9952 0.0000
vn 0.2903 0.9569 0.0000
vn 0.4714 0.8819 0.0000
vn 0.6344 0.7730 0.0000
vn 0.7730 0.6344 0.0000
vn 0.8819 0.4714 0.0000
vn 0.9569 0.2903 0.0000
vn 0.9952 0.0980 0.0000
vn 0.9952 -0.0980 -0.0000
vn 0.9569 -0.2903 -0.0000
vn 0.8819 -0.4714 -0.0000
vn 0.7730 -0.6344 -0.0000
vn 0.6344 -0.7730 -0.0000
vn 0.4714 -0.8819 -0.0000
vn 0.2903 -0.9569 -0.0000
vn 0.0980 -0.9952 -0.0000
vn -0.0980 -0.9952 -0.0000
vn -0.2903 -0.9569 -0.0000
vn -0.4714 -0.8819 -0.0000
vn -0.6344 -0.7730 -0.0000
vn -0.7730 -0.6344 -0.0000
vn -0.8819 -0.4714 -0.0000
vn -0.9569 -0.2903 -0.0000
vn -0.9952 -0.0980 -0.0000
vn -0.9952 0.0980 0.0000
vn -0.9569 0.2903 0.0000
vn -0.8819 0.4714 0.0000
vn -0.7730 0.6344 0.0000
vn -0.6344 0.7730 0.0000
vn -0.4714 0.8819 0.0000
vn 0.0000 0.0000 1.0000
vn -0.2903 0.9569 0.0000
vn -0.0980 0.9952 0.0000
vn 0.0000 0.0000 -1.0000
usemtl None
s off
f 2/1/1 3/2/1 1/3/1
f 4/4/2 5/5/2 3/2/2
f 6/6/3 7/7/3 5/5/3
f 8/8/4 9/9/4 7/7/4
f 10/10/5 11/11/5 9/9/5
f 12/12/6 13/13/6 11/14/6
f 14/15/7 15/16/7 13/13/7
f 16/17/8 17/18/8 15/16/8
f 18/19/9 19/20/9 17/18/9
f 20/21/10 21/22/10 19/20/10
f 22/23/11 23/24/11 21/22/11
f 24/25/12 25/26/12 23/24/12
f 26/27/13 27/28/13 25/29/13
f 28/30/14 29/31/14 27/28/14
f 30/32/15 31/33/15 29/31/15
f 32/34/16 33/35/16 31/33/16
f 34/36/17 35/37/17 33/35/17
f 36/38/18 37/39/18 35/37/18
f 38/40/19 39/41/19 37/39/19
f 40/42/20 41/43/20 39/41/20
f 42/44/21 43/45/21 41/46/21
f 44/47/22 45/48/22 43/45/22
f 46/49/23 47/50/23 45/48/23
f 48/51/24 49/52/24 47/50/24
f 50/53/25 51/54/25 49/52/25
f 52/55/26 53/56/26 51/54/26
f 54/57/27 55/58/27 53/56/27
f 56/59/28 57/60/28 55/58/28
f 58/61/29 59/62/29 57/63/29
f 60/64/30 61/65/30 59/62/30
f 54/66/31 38/67/31 22/68/31
f 62/69/32 63/70/32 61/65/32
f 64/71/33 1/3/33 63/70/33
f 15/72/34 31/73/34 47/74/34
f 2/1/1 4/4/1 3/2/1
f 4/4/2 6/6/2 5/5/2
f 6/6/3 8/8/3 7/7/3
f 8/8/4 10/10/4 9/9/4
f 10/10/5 12/75/5 11/11/5
f 12/12/6 14/15/6 13/13/6
f 14/15/7 16/17/7 15/16/7
f 16/17/8 18/19/8 17/18/8
f 18/19/9 20/21/9 19/20/9
f 20/21/10 22/23/10 21/22/10
f 22/23/11 24/25/11 23/24/11
f 24/25/12 26/76/12 25/26/12
f 26/27/13 28/30/13 27/28/13
f 28/30/14 30/32/14 29/31/14
f 30/32/15 32/34/15 31/33/15
f 32/34/16 34/36/16 33/35/16
f 34/36/17 36/38/17 35/37/17
f 36/38/18 38/40/18 37/39/18
f 38/40/19 40/42/19 39/41/19
f 40/42/20 42/77/20 41/43/20
f 42/44/21 44/47/21 43/45/21
f 44/47/22 46/49/22 45/48/22
f 46/49/23 48/51/23 47/50/23
f 48/51/24 50/53/24 49/52/24
f 50/53/25 52/55/25 51/54/25
f 52/55/26 54/57/26 53/56/26
f 54/57/27 56/59/27 55/58/27
f 56/59/28 58/78/28 57/60/28
f 58/61/29 60/64/29 59/62/29
f 60/64/30 62/69/30 61/65/30
f 6/79/31 4/80/31 2/81/31
f 2/81/31 64/82/31 6/79/31
f 64/82/31 62/83/31 6/79/31
f 62/83/31 60/84/31 58/85/31
f 58/85/31 56/86/31 54/66/31
f 54/66/31 52/87/31 50/88/31
f 50/88/31 48/89/31 54/66/31
f 48/89/31 46/90/31 54/66/31
f 46/90/31 44/91/31 38/67/31
f 44/91/31 42/92/31 38/67/31
f 42/92/31 40/93/31 38/67/31
f 38/67/31 36/94/31 34/95/31
f 34/95/31 32/96/31 30/97/31
f 30/97/31 28/98/31 26/99/31
f 26/99/31 24/100/31 22/68/31
f 22/68/31 20/101/31 18/102/31
f 18/102/31 16/103/31 22/68/31
f 16/103/31 14/104/31 22/68/31
f 14/104/31 12/105/31 10/106/31
f 10/106/31 8/107/31 6/79/31
f 62/83/31 58/85/31 6/79/31
f 58/85/31 54/66/31 6/79/31
f 38/67/31 34/95/31 22/68/31
f 34/95/31 30/97/31 22/68/31
f 30/97/31 26/99/31 22/68/31
f 14/104/31 10/106/31 22/68/31
f 10/106/31 6/79/31 22/68/31
f 54/66/31 46/90/31 38/67/31
f 6/79/31 54/66/31 22/68/31
f 62/69/32 64/71/32 63/70/32
f 64/71/33 2/1/33 1/3/33
f 63/108/34 1/109/34 3/110/34
f 3/110/34 5/111/34 7/112/34
f 7/112/34 9/113/34 11/114/34
f 11/114/34 13/115/34 7/112/34
f 13/115/34 15/72/34 7/112/34
f 15/72/34 17/116/34 19/117/34
f 19/117/34 21/118/34 15/72/34
f 21/118/34 23/119/34 15/72/34
f 23/119/34 25/120/34 31/73/34
f 25/120/34 27/121/34 31/73/34
f 27/121/34 29/122/34 31/73/34
f 31/73/34 33/123/34 35/124/34
f 35/124/34 37/125/34 39/126/34
f 39/126/34 41/127/34 43/128/34
f 43/128/34 45/129/34 47/74/34
f 47/74/34 49/130/34 51/131/34
f 51/131/34 53/132/34 55/133/34
f 55/133/34 57/134/34 63/108/34
f 57/134/34 59/135/34 63/108/34
f 59/135/34 61/136/34 63/108/34
f 63/108/34 3/110/34 7/112/34
f 31/73/34 35/124/34 47/74/34
f 35/124/34 39/126/34 47/74/34
f 39/126/34 43/128/34 47/74/34
f 47/74/34 51/131/34 63/108/34
f 51/131/34 55/133/34 63/108/34
f 63/108/34 7/112/34 15/72/34
f 15/72/34 23/119/34 31/73/34
f 63/108/34 15/72/34 47/74/34
