# Blender v2.79 (sub 0) OBJ File: 'start.blend'
# www.blender.org
mtllib start.mtl
o Cube
v 19.999990 14.564991 -9.480054
v 19.999990 14.564991 9.480055
v -19.999992 14.564991 9.480053
v -19.999983 14.564991 -9.480059
v 20.000000 9.435009 -9.480050
v 19.999977 9.435009 9.480061
v -19.999998 9.435009 9.480051
v -19.999989 9.435009 -9.480055
vt 1.000000 0.296000
vt 1.000000 0.800000
vt 0.000000 0.800000
vt 0.000000 1.000000
vt 1.000000 0.999999
vt 0.999999 0.000000
vt 0.000000 0.296000
vt 0.000000 0.000001
vn 0.0000 1.0000 0.0000
vn 0.0000 -1.0000 0.0000
vn 1.0000 0.0000 0.0000
vn -0.0000 0.0000 1.0000
vn -1.0000 0.0000 -0.0000
vn 0.0000 -0.0000 -1.0000
usemtl Material
s off
f 2/1/1 1/2/1 4/3/1
f 8/4/2 5/5/2 6/6/2
f 5/5/3 1/2/3 2/1/3
f 6/6/4 2/1/4 3/7/4
f 3/7/5 4/3/5 8/4/5
f 1/2/6 5/5/6 8/4/6
f 2/1/1 4/3/1 3/7/1
f 8/4/2 6/6/2 7/8/2
f 5/5/3 2/1/3 6/6/3
f 6/6/4 3/7/4 7/8/4
f 3/7/5 8/4/5 7/8/5
f 1/2/6 8/4/6 4/3/6
