# Blender v2.79 (sub 0) OBJ File: ''
# www.blender.org
mtllib box.mtl.mtl
o Cube.001
v 1.000000 -1.000000 1.000000
v -1.000000 -1.000000 -1.000000
v 1.000000 -1.000000 -1.000000
v -1.000000 1.000000 -1.000000
v 0.999999 1.000000 1.000001
v 1.000000 1.000000 -0.999999
v -1.000000 -1.000000 1.000000
v -1.000000 1.000000 1.000000
vn 0.0000 -1.0000 -0.0000
vn -0.0000 1.0000 0.0000
vn 1.0000 0.0000 0.0000
vn -0.0000 -0.0000 1.0000
vn -1.0000 0.0000 0.0000
vn 0.0000 0.0000 -1.0000
usemtl Material.001
s 1
f 1//1 2//1 3//1
f 4//2 5//2 6//2
f 6//3 1//3 3//3
f 5//4 7//4 1//4
f 7//5 4//5 2//5
f 3//6 4//6 6//6
f 1//1 7//1 2//1
f 4//2 8//2 5//2
f 6//3 5//3 1//3
f 5//4 8//4 7//4
f 7//5 8//5 4//5
f 3//6 2//6 4//6
o Cube
v 1.000000 -1.000000 -1.000000
v 1.000000 -1.000000 1.000000
v -1.000000 -1.000000 1.000000
v -1.000000 -1.000000 -1.000000
v 1.000000 1.000000 -0.999999
v 0.999999 1.000000 1.000001
v -1.000000 1.000000 1.000000
v -1.000000 1.000000 -1.000000
vn 0.0000 -1.0000 0.0000
vn 0.0000 1.0000 0.0000
vn 1.0000 0.0000 0.0000
vn -0.0000 -0.0000 1.0000
vn -1.0000 -0.0000 -0.0000
vn 0.0000 0.0000 -1.0000
usemtl Material
s off
f 9//7 10//7 11//7 12//7
f 13//8 16//8 15//8 14//8
f 9//9 13//9 14//9 10//9
f 10//10 14//10 15//10 11//10
f 11//11 15//11 16//11 12//11
f 13//12 9//12 12//12 16//12
