# Blender v2.79 (sub 0) OBJ File: 'map_track_turn.blend'
# www.blender.org
mtllib map_track_turn_border_C.mtl
o Circle
v -10.000000 11.000000 10.000000
v -10.195090 10.980785 10.000000
v -10.382684 10.923880 10.000000
v -10.555571 10.831470 10.000000
v -10.707107 10.707107 10.000000
v -10.831470 10.555571 10.000000
v -10.923880 10.382684 10.000000
v -10.980785 10.195090 10.000000
v -11.000000 10.000000 10.000000
v -10.980785 9.804910 10.000000
v -10.923880 9.617317 10.000000
v -10.831470 9.444429 10.000000
v -10.707107 9.292893 10.000000
v -10.555571 9.168530 10.000000
v -10.382683 9.076120 10.000000
v -10.195090 9.019215 10.000000
v -10.000000 9.000000 10.000000
v -9.804910 9.019215 10.000000
v -9.617316 9.076120 10.000000
v -9.444429 9.168530 10.000000
v -9.292892 9.292893 10.000000
v -9.168530 9.444430 10.000000
v -9.076120 9.617317 10.000000
v -9.019215 9.804911 10.000000
v -9.000000 10.000001 10.000000
v -9.019215 10.195091 10.000000
v -9.076121 10.382685 10.000000
v -9.168531 10.555572 10.000000
v -9.292894 10.707108 10.000000
v -9.444431 10.831470 10.000000
v -9.617318 10.923880 10.000000
v -9.804912 10.980785 10.000000
v -10.000000 11.000000 10.000000
v -10.188443 10.980785 10.050493
v -10.369644 10.923880 10.099046
v -10.536639 10.831470 10.143792
v -10.683013 10.707107 10.183013
v -10.803138 10.555571 10.215200
v -10.892399 10.382684 10.239118
v -10.947366 10.195090 10.253846
v -10.965926 10.000000 10.258819
v -10.947366 9.804910 10.253846
v -10.892399 9.617317 10.239118
v -10.803138 9.444429 10.215200
v -10.683013 9.292893 10.183013
v -10.536639 9.168530 10.143792
v -10.369643 9.076120 10.099046
v -10.188442 9.019215 10.050493
v -10.000000 9.000000 10.000000
v -9.811557 9.019215 9.949507
v -9.630356 9.076120 9.900954
v -9.463360 9.168530 9.856208
v -9.316987 9.292893 9.816987
v -9.196861 9.444430 9.784800
v -9.107600 9.617317 9.760882
v -9.052634 9.804911 9.746154
v -9.034074 10.000001 9.741181
v -9.052634 10.195091 9.746154
v -9.107601 10.382685 9.760882
v -9.196863 10.555572 9.784800
v -9.316988 10.707108 9.816988
v -9.463362 10.831470 9.856208
v -9.630358 10.923880 9.900954
v -9.811559 10.980785 9.949508
v -10.000000 11.000000 10.000000
v -10.168953 10.980785 10.097546
v -10.331413 10.923880 10.191341
v -10.481138 10.831470 10.277785
v -10.612372 10.707107 10.353554
v -10.720074 10.555571 10.415735
v -10.800103 10.382684 10.461940
v -10.849385 10.195090 10.490393
v -10.866025 10.000000 10.500000
v -10.849385 9.804910 10.490393
v -10.800103 9.617316 10.461940
v -10.720074 9.444429 10.415735
v -10.612372 9.292893 10.353554
v -10.481138 9.168530 10.277785
v -10.331413 9.076120 10.191341
v -10.168953 9.019215 10.097545
v -10.000000 9.000000 10.000000
v -9.831046 9.019215 9.902454
v -9.668586 9.076120 9.808658
v -9.518862 9.168530 9.722215
v -9.387628 9.292893 9.646446
v -9.279926 9.444430 9.584265
v -9.199897 9.617317 9.538060
v -9.150615 9.804911 9.509607
v -9.133975 10.000001 9.500000
v -9.150616 10.195091 9.509607
v -9.199897 10.382685 9.538060
v -9.279926 10.555572 9.584266
v -9.387629 10.707108 9.646447
v -9.518863 10.831470 9.722216
v -9.668588 10.923880 9.808659
v -9.831048 10.980785 9.902455
v -10.000000 11.000000 10.000000
v -10.137950 10.980785 10.137950
v -10.270598 10.923880 10.270598
v -10.392847 10.831470 10.392847
v -10.500000 10.707107 10.500000
v -10.587938 10.555571 10.587938
v -10.653281 10.382684 10.653281
v -10.693520 10.195090 10.693520
v -10.707107 10.000000 10.707107
v -10.693520 9.804910 10.693520
v -10.653281 9.617316 10.653281
v -10.587938 9.444429 10.587938
v -10.500000 9.292893 10.500000
v -10.392847 9.168530 10.392847
v -10.270597 9.076120 10.270597
v -10.137950 9.019215 10.137950
v -10.000000 9.000000 10.000000
v -9.862050 9.019215 9.862050
v -9.729402 9.076120 9.729402
v -9.607152 9.168530 9.607152
v -9.500000 9.292893 9.500000
v -9.412062 9.444430 9.412062
v -9.346718 9.617317 9.346718
v -9.306480 9.804911 9.306480
v -9.292893 10.000001 9.292893
v -9.306480 10.195091 9.306480
v -9.346719 10.382685 9.346719
v -9.412063 10.555572 9.412063
v -9.500001 10.707108 9.500001
v -9.607153 10.831470 9.607153
v -9.729403 10.923880 9.729403
v -9.862051 10.980785 9.862051
v -10.000000 11.000000 10.000000
v -10.097546 10.980785 10.168953
v -10.191341 10.923880 10.331413
v -10.277785 10.831470 10.481138
v -10.353554 10.707107 10.612372
v -10.415735 10.555571 10.720074
v -10.461940 10.382684 10.800103
v -10.490393 10.195090 10.849385
v -10.500000 10.000000 10.866026
v -10.490393 9.804910 10.849385
v -10.461940 9.617316 10.800103
v -10.415735 9.444429 10.720074
v -10.353554 9.292893 10.612372
v -10.277785 9.168530 10.481138
v -10.191341 9.076120 10.331413
v -10.097545 9.019215 10.168953
v -10.000000 9.000000 10.000000
v -9.902454 9.019215 9.831046
v -9.808658 9.076120 9.668586
v -9.722215 9.168530 9.518862
v -9.646446 9.292893 9.387627
v -9.584265 9.444430 9.279926
v -9.538060 9.617317 9.199897
v -9.509607 9.804911 9.150615
v -9.500000 10.000001 9.133974
v -9.509607 10.195091 9.150615
v -9.538060 10.382685 9.199897
v -9.584266 10.555572 9.279926
v -9.646447 10.707108 9.387629
v -9.722216 10.831470 9.518863
v -9.808659 10.923880 9.668588
v -9.902455 10.980785 9.831048
v -10.000000 11.000000 10.000000
v -10.050493 10.980785 10.188443
v -10.099046 10.923880 10.369644
v -10.143792 10.831470 10.536640
v -10.183013 10.707107 10.683013
v -10.215200 10.555571 10.803138
v -10.239118 10.382684 10.892399
v -10.253846 10.195090 10.947366
v -10.258819 10.000000 10.965926
v -10.253846 9.804910 10.947366
v -10.239118 9.617316 10.892399
v -10.215200 9.444429 10.803138
v -10.183013 9.292893 10.683013
v -10.143792 9.168530 10.536639
v -10.099046 9.076120 10.369643
v -10.050493 9.019215 10.188442
v -10.000000 9.000000 10.000000
v -9.949507 9.019215 9.811557
v -9.900954 9.076120 9.630356
v -9.856208 9.168530 9.463360
v -9.816987 9.292893 9.316987
v -9.784800 9.444430 9.196861
v -9.760882 9.617317 9.107600
v -9.746154 9.804911 9.052634
v -9.741181 10.000001 9.034074
v -9.746154 10.195091 9.052634
v -9.760882 10.382685 9.107601
v -9.784800 10.555572 9.196863
v -9.816988 10.707108 9.316988
v -9.856208 10.831470 9.463362
v -9.900954 10.923880 9.630358
v -9.949508 10.980785 9.811559
v -10.000000 11.000000 10.000000
v -10.000000 10.980785 10.195090
v -10.000000 10.923880 10.382684
v -10.000000 10.831470 10.555571
v -10.000000 10.707107 10.707107
v -10.000000 10.555571 10.831470
v -10.000000 10.382684 10.923880
v -10.000000 10.195090 10.980785
v -10.000000 10.000000 11.000000
v -10.000000 9.804910 10.980785
v -10.000000 9.617316 10.923880
v -10.000000 9.444429 10.831470
v -10.000000 9.292893 10.707107
v -10.000000 9.168530 10.555571
v -10.000000 9.076120 10.382683
v -10.000000 9.019215 10.195090
v -10.000000 9.000000 10.000000
v -10.000000 9.019215 9.804909
v -10.000000 9.076120 9.617316
v -10.000000 9.168530 9.444429
v -10.000000 9.292893 9.292892
v -10.000000 9.444430 9.168530
v -10.000000 9.617317 9.076120
v -10.000000 9.804911 9.019215
v -10.000000 10.000001 9.000000
v -10.000000 10.195091 9.019215
v -10.000000 10.382685 9.076121
v -10.000000 10.555572 9.168531
v -10.000000 10.707108 9.292894
v -10.000000 10.831470 9.444431
v -10.000000 10.923880 9.617318
v -10.000000 10.980785 9.804912
vn 0.2900 -0.9562 -0.0382
vn 0.3763 -0.9210 -0.1008
vn 0.3891 -0.9198 -0.0512
vn 0.2804 -0.9569 -0.0751
vn 0.3374 -0.9210 -0.1948
vn 0.2514 -0.9569 -0.1451
vn 0.2755 -0.9210 -0.2755
vn 0.2052 -0.9569 -0.2052
vn 0.1948 -0.9210 -0.3374
vn 0.1451 -0.9569 -0.2514
vn 0.1008 -0.9210 -0.3763
vn 0.0751 -0.9569 -0.2804
vn 0.0512 -0.9198 -0.3891
vn 0.5420 -0.8277 -0.1452
vn 0.5596 -0.8254 -0.0737
vn 0.4860 -0.8277 -0.2806
vn 0.3968 -0.8277 -0.3968
vn 0.2806 -0.8277 -0.4860
vn 0.1452 -0.8277 -0.5420
vn 0.0737 -0.8254 -0.5596
vn 0.6869 -0.7030 -0.1841
vn 0.7080 -0.7000 -0.0932
vn 0.6159 -0.7030 -0.3555
vn 0.5028 -0.7030 -0.5028
vn 0.3556 -0.7030 -0.6159
vn 0.1840 -0.7030 -0.6869
vn 0.0932 -0.7000 -0.7080
vn 0.8055 -0.5518 -0.2158
vn 0.8289 -0.5485 -0.1091
vn 0.7222 -0.5518 -0.4170
vn 0.5897 -0.5518 -0.5897
vn 0.4170 -0.5518 -0.7222
vn 0.2158 -0.5518 -0.8055
vn 0.1091 -0.5485 -0.8289
vn 0.8935 -0.3798 -0.2394
vn 0.9183 -0.3770 -0.1209
vn 0.8011 -0.3798 -0.4625
vn 0.6541 -0.3798 -0.6541
vn 0.4625 -0.3798 -0.8011
vn 0.2394 -0.3798 -0.8935
vn 0.1209 -0.3770 -0.9182
vn 0.9476 -0.1935 -0.2539
vn 0.9730 -0.1919 -0.1281
vn 0.8496 -0.1935 -0.4905
vn 0.6937 -0.1935 -0.6937
vn 0.4905 -0.1935 -0.8496
vn 0.2539 -0.1935 -0.9477
vn 0.1281 -0.1919 -0.9730
vn 0.9659 0.0000 -0.2588
vn 0.9914 0.0000 -0.1305
vn 0.8660 0.0000 -0.5000
vn 0.7071 0.0000 -0.7071
vn 0.5000 0.0000 -0.8660
vn 0.2588 0.0000 -0.9659
vn 0.1305 0.0000 -0.9914
vn 0.9476 0.1935 -0.2539
vn 0.9730 0.1919 -0.1281
vn 0.8496 0.1935 -0.4905
vn 0.6937 0.1935 -0.6937
vn 0.4905 0.1935 -0.8496
vn 0.2539 0.1935 -0.9476
vn 0.1281 0.1919 -0.9730
vn 0.8935 0.3798 -0.2394
vn 0.9182 0.3770 -0.1209
vn 0.8011 0.3798 -0.4625
vn 0.6541 0.3798 -0.6541
vn 0.4625 0.3798 -0.8011
vn 0.2394 0.3798 -0.8935
vn 0.1209 0.3770 -0.9182
vn 0.8055 0.5518 -0.2158
vn 0.8289 0.5485 -0.1091
vn 0.7222 0.5518 -0.4170
vn 0.5897 0.5518 -0.5897
vn 0.4169 0.5518 -0.7222
vn 0.2158 0.5518 -0.8055
vn 0.1091 0.5485 -0.8289
vn 0.7080 0.7000 -0.0932
vn 0.6869 0.7030 -0.1840
vn 0.6158 0.7031 -0.3555
vn 0.5028 0.7030 -0.5028
vn 0.3555 0.7030 -0.6158
vn 0.1840 0.7030 -0.6869
vn 0.0932 0.7000 -0.7080
vn 0.5420 0.8277 -0.1452
vn 0.5596 0.8254 -0.0737
vn 0.4860 0.8277 -0.2806
vn 0.3968 0.8277 -0.3968
vn 0.2806 0.8277 -0.4860
vn 0.1452 0.8277 -0.5420
vn 0.0737 0.8254 -0.5596
vn 0.3763 0.9210 -0.1008
vn 0.3891 0.9198 -0.0512
vn 0.3374 0.9210 -0.1948
vn 0.2755 0.9210 -0.2755
vn 0.1948 0.9210 -0.3374
vn 0.1008 0.9210 -0.3763
vn 0.0512 0.9198 -0.3891
vn 0.2028 0.9788 -0.0267
vn 0.1960 0.9792 -0.0525
vn 0.1757 0.9792 -0.1014
vn 0.1435 0.9792 -0.1435
vn 0.1014 0.9792 -0.1757
vn 0.0525 0.9792 -0.1960
vn 0.0267 0.9788 -0.2028
vn 0.0000 0.0000 1.0000
vn 0.0154 0.2439 0.9697
vn 0.0382 -0.9562 -0.2900
usemtl None
s 1
f 18//1 51//2 19//3
f 50//4 83//5 51//2
f 82//6 115//7 83//5
f 114//8 147//9 115//7
f 146//10 179//11 147//9
f 178//12 211//13 179//11
f 19//3 52//14 20//15
f 52//14 83//5 84//16
f 83//5 116//17 84//16
f 116//17 147//9 148//18
f 147//9 180//19 148//18
f 179//11 212//20 180//19
f 20//15 53//21 21//22
f 52//14 85//23 53//21
f 84//16 117//24 85//23
f 117//24 148//18 149//25
f 148//18 181//26 149//25
f 181//26 212//20 213//27
f 21//22 54//28 22//29
f 53//21 86//30 54//28
f 85//23 118//31 86//30
f 117//24 150//32 118//31
f 149//25 182//33 150//32
f 181//26 214//34 182//33
f 22//29 55//35 23//36
f 54//28 87//37 55//35
f 86//30 119//38 87//37
f 118//31 151//39 119//38
f 150//32 183//40 151//39
f 182//33 215//41 183//40
f 23//36 56//42 24//43
f 55//35 88//44 56//42
f 88//44 119//38 120//45
f 119//38 152//46 120//45
f 151//39 184//47 152//46
f 183//40 216//48 184//47
f 24//43 57//49 25//50
f 56//42 89//51 57//49
f 88//44 121//52 89//51
f 121//52 152//46 153//53
f 152//46 185//54 153//53
f 184//47 217//55 185//54
f 25//50 58//56 26//57
f 58//56 89//51 90//58
f 89//51 122//59 90//58
f 121//52 154//60 122//59
f 153//53 186//61 154//60
f 185//54 218//62 186//61
f 26//57 59//63 27//64
f 58//56 91//65 59//63
f 90//58 123//66 91//65
f 122//59 155//67 123//66
f 154//60 187//68 155//67
f 186//61 219//69 187//68
f 27//64 60//70 28//71
f 59//63 92//72 60//70
f 91//65 124//73 92//72
f 123//66 156//74 124//73
f 156//74 187//68 188//75
f 187//68 220//76 188//75
f 29//77 60//70 61//78
f 60//70 93//79 61//78
f 92//72 125//80 93//79
f 124//73 157//81 125//80
f 157//81 188//75 189//82
f 188//75 221//83 189//82
f 29//77 62//84 30//85
f 62//84 93//79 94//86
f 93//79 126//87 94//86
f 126//87 157//81 158//88
f 157//81 190//89 158//88
f 189//82 222//90 190//89
f 30//85 63//91 31//92
f 62//84 95//93 63//91
f 94//86 127//94 95//93
f 126//87 159//95 127//94
f 159//95 190//89 191//96
f 190//89 223//97 191//96
f 32//98 63//91 64//99
f 63//91 96//100 64//99
f 95//93 128//101 96//100
f 127//94 160//102 128//101
f 159//95 192//103 160//102
f 191//96 224//104 192//103
f 224//104 129//105 65//106
f 18//1 50//4 51//2
f 50//4 82//6 83//5
f 82//6 114//8 115//7
f 114//8 146//10 147//9
f 146//10 178//12 179//11
f 178//12 210//107 211//13
f 19//3 51//2 52//14
f 52//14 51//2 83//5
f 83//5 115//7 116//17
f 116//17 115//7 147//9
f 147//9 179//11 180//19
f 179//11 211//13 212//20
f 20//15 52//14 53//21
f 52//14 84//16 85//23
f 84//16 116//17 117//24
f 117//24 116//17 148//18
f 148//18 180//19 181//26
f 181//26 180//19 212//20
f 21//22 53//21 54//28
f 53//21 85//23 86//30
f 85//23 117//24 118//31
f 117//24 149//25 150//32
f 149//25 181//26 182//33
f 181//26 213//27 214//34
f 22//29 54//28 55//35
f 54//28 86//30 87//37
f 86//30 118//31 119//38
f 118//31 150//32 151//39
f 150//32 182//33 183//40
f 182//33 214//34 215//41
f 23//36 55//35 56//42
f 55//35 87//37 88//44
f 88//44 87//37 119//38
f 119//38 151//39 152//46
f 151//39 183//40 184//47
f 183//40 215//41 216//48
f 24//43 56//42 57//49
f 56//42 88//44 89//51
f 88//44 120//45 121//52
f 121//52 120//45 152//46
f 152//46 184//47 185//54
f 184//47 216//48 217//55
f 25//50 57//49 58//56
f 58//56 57//49 89//51
f 89//51 121//52 122//59
f 121//52 153//53 154//60
f 153//53 185//54 186//61
f 185//54 217//55 218//62
f 26//57 58//56 59//63
f 58//56 90//58 91//65
f 90//58 122//59 123//66
f 122//59 154//60 155//67
f 154//60 186//61 187//68
f 186//61 218//62 219//69
f 27//64 59//63 60//70
f 59//63 91//65 92//72
f 91//65 123//66 124//73
f 123//66 155//67 156//74
f 156//74 155//67 187//68
f 187//68 219//69 220//76
f 29//77 28//71 60//70
f 60//70 92//72 93//79
f 92//72 124//73 125//80
f 124//73 156//74 157//81
f 157//81 156//74 188//75
f 188//75 220//76 221//83
f 29//77 61//78 62//84
f 62//84 61//78 93//79
f 93//79 125//80 126//87
f 126//87 125//80 157//81
f 157//81 189//82 190//89
f 189//82 221//83 222//90
f 30//85 62//84 63//91
f 62//84 94//86 95//93
f 94//86 126//87 127//94
f 126//87 158//88 159//95
f 159//95 158//88 190//89
f 190//89 222//90 223//97
f 32//98 31//92 63//91
f 63//91 95//93 96//100
f 95//93 127//94 128//101
f 127//94 159//95 160//102
f 159//95 191//96 192//103
f 191//96 223//97 224//104
f 32//98 64//99 65//106
f 64//99 96//100 65//106
f 96//100 128//101 65//106
f 128//101 160//102 65//106
f 160//102 192//103 65//106
f 192//103 224//104 65//106
f 193//105 33//105 1//105
f 65//106 193//105 1//105
f 65//106 1//105 32//98
f 129//105 97//105 161//105
f 129//105 161//105 65//106
l 18 17
l 50 49
l 82 81
l 114 113
l 146 145
l 178 177
l 210 209
l 33 64
l 97 128
l 129 160
l 161 192
l 193 224
