# Blender v2.76 (sub 0) OBJ File: ''
# www.blender.org
mtllib piso_plano.mtl
o Cube
v 99.999954 -0.500000 -99.999947
v 99.999954 -0.500000 99.999954
v -99.999969 -0.500000 99.999939
v -99.999916 -0.500000 -99.999992
v 100.000000 0.500000 -99.999901
v 99.999886 0.500000 100.000015
v -99.999992 0.500000 99.999916
v -99.999947 0.500000 -99.999954
vn 0.000000 -1.000000 0.000000
vn 0.000000 1.000000 -0.000000
vn 1.000000 0.000000 0.000000
vn -0.000000 -0.000000 1.000000
vn -1.000000 -0.000000 -0.000000
vn 0.000000 0.000000 -1.000000
usemtl Material
s off
f 1//1 2//1 3//1 4//1
f 5//2 8//2 7//2 6//2
f 1//3 5//3 6//3 2//3
f 2//4 6//4 7//4 3//4
f 3//5 7//5 8//5 4//5
f 5//6 1//6 4//6 8//6
